<?xml version="1.0" encoding="UTF-8" standalone="no"?>
<!-- Created with Inkscape (http://www.inkscape.org/) -->

<svg
   version="1.1"
   id="svg2"
   width="24cm"
   height="10.5cm"
   viewBox="0 0 907.08662 396.85038"
   sodipodi:docname="LabIFMaker4.svg"
   inkscape:version="1.2.2 (b0a8486541, 2022-12-01)"
   xmlns:inkscape="http://www.inkscape.org/namespaces/inkscape"
   xmlns:sodipodi="http://sodipodi.sourceforge.net/DTD/sodipodi-0.dtd"
   xmlns="http://www.w3.org/2000/svg"
   xmlns:svg="http://www.w3.org/2000/svg">
  <defs
     id="defs6">
    <clipPath
       clipPathUnits="userSpaceOnUse"
       id="clipPath236">
      <path
         d="m 53,-272.889 h 490.3 v -490 H 53 Z"
         clip-rule="evenodd"
         id="path238"
         style="stroke-width:0.0999997" />
    </clipPath>
  </defs>
  <sodipodi:namedview
     id="namedview4"
     pagecolor="#212121"
     bordercolor="#666666"
     borderopacity="1.0"
     inkscape:showpageshadow="2"
     inkscape:pageopacity="0.0"
     inkscape:pagecheckerboard="0"
     inkscape:deskcolor="#212121"
     showgrid="false"
     showguides="true"
     inkscape:zoom="0.59465203"
     inkscape:cx="105.10348"
     inkscape:cy="306.90217"
     inkscape:window-width="1280"
     inkscape:window-height="655"
     inkscape:window-x="0"
     inkscape:window-y="0"
     inkscape:window-maximized="1"
     inkscape:current-layer="g8"
     inkscape:document-units="mm">
    <sodipodi:guide
       position="413.81034,251.18438"
       orientation="0,-1"
       id="guide297"
       inkscape:locked="false" />
  </sodipodi:namedview>
  <g
     id="g8"
     inkscape:groupmode="layer"
     inkscape:label="PORT_NORMATIVA_RET_050_Aprova Regimento LabIFMaker_Espaço de Inovação do IFSP_INOVA"
     transform="matrix(1.3333333,0,0,-1.3333333,0,1122.52)">
    <rect
       style="fill:#fff;stroke-width:0.806351;stroke-linecap:round;paint-order:stroke fill markers"
       id="rect3804"
       width="681.36047"
       height="298.54645"
       x="0.97502983"
       y="-841.15717"
       transform="scale(1,-1)" />
    <g
       id="g2152"
       transform="matrix(1.48679,0,0,1.5751569,-335.84939,-342.96487)"
       inkscape:export-filename="LabIFMaker2..png"
       inkscape:export-xdpi="200"
       inkscape:export-ydpi="200"
       style="fill:#212121">
      <g
         id="g2145"
         transform="translate(-379.18573,36.23122)"
         style="fill:#212121">
        <g
           id="g1961"
           style="fill:#212121">
          <path
             id="path295"
             style="fill:#212121;fill-opacity:1;stroke:none;stroke-width:0.198465;stroke-linecap:round;stroke-linejoin:round;paint-order:stroke fill markers"
             d="m 682.61182,647.95882 c -9.80726,-26.07469 -29.02285,-46.20115 -50.03637,-46.47177 -16.40019,-0.21122 -24.08345,22.44703 -14.42751,48.57813 9.65593,26.13111 32.29208,45.62719 48.69363,45.62719 16.40156,0 26.18358,-20.04747 15.77025,-47.73355 z"
             sodipodi:nodetypes="sssss" />
          <path
             style="fill:#212121;fill-opacity:1;stroke:none;stroke-width:0.75px;stroke-linecap:butt;stroke-linejoin:miter;stroke-opacity:1"
             d="m 711.00895,624.51323 c -9.72978,5.72858 -9.19705,9.71009 -9.20986,18.26223 l 0.43779,52.52376 c -0.40156,11.54795 5.88383,7.75201 12.0159,3.90369 l 42.9652,-24.8508 c 11.03736,-6.39912 12.31557,-7.94455 12.05196,-23.19653 l -0.51555,-49.46748 c -0.13348,-8.7909 -1.90371,-10.44699 -11.07152,-4.7574 z"
             id="path485"
             sodipodi:nodetypes="ccccccccc" />
          <path
             style="fill:#212121;fill-opacity:1;stroke:none;stroke-width:0.75px;stroke-linecap:butt;stroke-linejoin:miter;stroke-opacity:1"
             d="m 701.07314,541.2329 c -9.85776,-5.50544 -13.02535,-3.0351 -20.41351,1.27236 l -45.11432,26.90048 c -10.17027,5.4847 -3.71995,8.99306 2.69817,12.34264 l 43.1456,24.53624 c 11.09681,6.29546 13.07619,6.61835 26.10767,-1.31088 l 42.43705,-25.42429 c 7.52038,-4.5543 8.05592,-6.91852 -1.48441,-11.95859 z"
             id="path487"
             sodipodi:nodetypes="ccccccccc" />
        </g>
      </g>
    </g>
    <g
       id="g2291"
       transform="matrix(0.746976,0,0,0.79137227,235.10346,523.59186)"
       style="fill:#212121">
      <g
         id="g2161"
         transform="matrix(2.1203855,0,0,2.1203855,-375.64246,-807.81651)"
         style="fill:#212121">
        <g
           aria-label="LAB"
           transform="scale(0.97855716,-1.0219127)"
           id="text2017"
           style="font-size:83.3067px;line-height:1.25;fill:#212121;stroke-width:2.08267">
          <path
             d="m 217.63742,-475.36127 v -59.46992 h 6.9151 v 53.20565 h 26.23673 v 6.26427 z"
             style="font-family:'Open Sans';-inkscape-font-specification:'Open Sans';fill:#212121"
             id="path2118" />
          <path
             d="m 298.25943,-475.36127 -7.40323,-18.91485 h -23.83678 l -7.32188,18.91485 h -6.99646 l 23.51136,-59.71398 h 5.81683 l 23.38933,59.71398 z m -9.55912,-25.13845 -6.91511,-18.42672 q -1.34234,-3.49823 -2.76604,-8.58287 -0.8949,3.905 -2.56266,8.58287 l -6.99646,18.42672 z"
             style="font-family:'Open Sans';-inkscape-font-specification:'Open Sans';fill:#212121"
             id="path2120" />
          <path
             d="m 313.59469,-534.83119 h 16.79964 q 11.83704,0 17.12506,3.53891 5.28803,3.53891 5.28803,11.1862 0,5.28803 -2.96943,8.74558 -2.92875,3.41688 -8.58287,4.4338 v 0.40677 q 13.54547,2.3186 13.54547,14.23699 0,7.97271 -5.41005,12.44719 -5.36938,4.47448 -15.05053,4.47448 h -20.74532 z m 6.91511,25.46387 h 11.38959 q 7.32187,0 10.53537,-2.27792 3.21349,-2.3186 3.21349,-7.76933 0,-5.00328 -3.57959,-7.19984 -3.57958,-2.23724 -11.38959,-2.23724 H 320.5098 Z m 0,5.8575 v 22.25037 h 12.40651 q 7.19985,0 10.82011,-2.76604 3.66094,-2.80672 3.66094,-8.74558 0,-5.53208 -3.74229,-8.13542 -3.70162,-2.60333 -11.30824,-2.60333 z"
             style="font-family:'Open Sans';-inkscape-font-specification:'Open Sans';fill:#212121"
             id="path2122" />
        </g>
        <g
           aria-label="IF"
           transform="scale(0.98204806,-1.0182801)"
           id="text2090"
           style="font-size:83.6039px;line-height:1.25;fill:#212121;stroke-width:2.0901">
          <path
             d="m 364.95627,-477.05707 v -59.76372 h 16.45135 v 59.76372 z"
             style="font-weight:bold;font-family:Futura;-inkscape-font-specification:'Futura Bold';fill:#212121"
             id="path2125" />
          <path
             d="m 394.55237,-477.05707 v -59.76372 h 36.61753 v 13.10393 h -20.73769 v 10.36884 h 19.55385 v 12.81818 h -19.55385 v 23.47277 z"
             style="font-weight:bold;font-family:Futura;-inkscape-font-specification:'Futura Bold';fill:#212121"
             id="path2127" />
        </g>
      </g>
      <g
         aria-label="MAKER"
         transform="matrix(2.0671695,0,0,-2.1749714,-375.54354,-807.81651)"
         id="text2096"
         style="font-size:82.9956px;line-height:1.25;fill:#212121;stroke-width:2.07489">
        <path
           d="m 219.41808,-404.9231 -20.10049,-52.52065 h -0.3242 q 0.56735,6.24088 0.56735,14.83222 v 37.68843 h -6.36246 v -59.24783 h 10.37445 l 18.76317,48.87338 h 0.3242 l 18.92527,-48.87338 h 10.29339 v 59.24783 h -6.88928 v -38.17473 q 0,-6.56508 0.56735,-14.26487 h -0.3242 l -20.26259,52.4396 z"
           style="font-family:'Open Sans';-inkscape-font-specification:'Open Sans';fill:#212121"
           id="path2130" />
        <path
           d="m 305.37202,-404.9231 -7.37558,-18.84421 h -23.74777 l -7.29453,18.84421 h -6.97034 l 23.42357,-59.49098 h 5.7951 l 23.30198,59.49098 z m -9.52342,-25.04457 -6.88928,-18.35791 q -1.33733,-3.48517 -2.75572,-8.55081 -0.89155,3.89041 -2.55308,8.55081 l -6.97034,18.35791 z"
           style="font-family:'Open Sans';-inkscape-font-specification:'Open Sans';fill:#212121"
           id="path2132" />
        <path
           d="m 363.44462,-404.9231 h -8.10503 l -21.59993,-28.73236 -6.20036,5.51143 v 23.22093 h -6.88928 v -59.24783 h 6.88928 v 29.38077 l 26.86821,-29.38077 h 8.14556 l -23.82881,25.7335 z"
           style="font-family:'Open Sans';-inkscape-font-specification:'Open Sans';fill:#212121"
           id="path2134" />
        <path
           d="m 404.61822,-404.9231 h -33.02803 v -59.24783 h 33.02803 v 6.1193 h -26.13875 v 19.08737 h 24.55827 v 6.07878 h -24.55827 v 21.80255 h 26.13875 z"
           style="font-family:'Open Sans';-inkscape-font-specification:'Open Sans';fill:#212121"
           id="path2136" />
        <path
           d="m 424.63768,-429.56241 v 24.63931 h -6.88929 v -59.24783 H 433.999 q 10.90127,0 16.0885,4.1741 5.22775,4.17409 5.22775,12.56281 0,11.7523 -11.91441,15.88587 l 16.0885,26.62505 h -8.14556 l -14.34592,-24.63931 z m 0,-5.91668 h 9.44237 q 7.29453,0 10.69865,-2.87729 3.40411,-2.91781 3.40411,-8.71292 0,-5.87615 -3.48516,-8.46976 -3.44464,-2.59362 -11.10391,-2.59362 h -8.95606 z"
           style="font-family:'Open Sans';-inkscape-font-specification:'Open Sans';fill:#212121"
           id="path2138" />
      </g>
    </g>
  </g>
</svg>
